<?xml version="1.0" standalone="no"?>
<!DOCTYPE svg PUBLIC "-//W3C//DTD SVG 20010904//EN"
 "http://www.w3.org/TR/2001/REC-SVG-20010904/DTD/svg10.dtd">
<svg version="1.0" xmlns="http://www.w3.org/2000/svg"
 width="1024.000000pt" height="1024.000000pt" viewBox="0 0 1024.000000 1024.000000"
 preserveAspectRatio="xMidYMid meet">

<g transform="translate(0.000000,1024.000000) scale(0.100000,-0.100000)"
fill="#000000" stroke="none">
<path d="M6210 8293 c-31 -12 -50 -37 -50 -68 0 -47 30 -69 87 -66 28 1 57 53
49 87 -5 19 -54 57 -68 53 -2 0 -10 -3 -18 -6z"/>
<path d="M2929 8201 c-26 -26 -29 -36 -29 -90 l0 -60 -56 -7 c-76 -9 -107 -36
-107 -94 0 -36 6 -48 32 -72 25 -23 41 -28 81 -28 l50 0 0 -56 c0 -48 4 -59
29 -85 32 -31 64 -36 106 -17 35 16 55 57 55 113 0 29 4 45 13 46 104 9 123
17 143 65 12 30 12 39 0 69 -17 39 -38 51 -107 60 l-47 6 -4 64 c-3 50 -9 70
-28 90 -34 37 -92 35 -131 -4z"/>
<path d="M4925 8114 c-657 -29 -1241 -232 -1724 -598 -705 -535 -1120 -1368
-1121 -2248 0 -364 79 -771 212 -1088 109 -259 233 -469 417 -705 75 -98 360
-379 456 -451 451 -338 897 -529 1414 -606 l149 -22 7 -35 c8 -41 38 -103 71
-147 37 -48 112 -84 175 -84 105 1 185 64 248 197 l34 71 81 12 c402 58 770
180 1084 361 84 49 127 68 135 61 7 -5 111 -87 232 -182 121 -96 256 -203 300
-240 114 -94 124 -100 173 -100 60 0 105 24 130 69 22 39 22 42 22 652 l0 613
49 70 c439 638 573 1492 357 2277 -158 575 -480 1068 -949 1453 -410 336 -940
571 -1449 641 -153 20 -384 34 -503 29z m239 -274 c246 -16 442 -53 674 -127
142 -46 180 -76 186 -145 2 -27 0 -46 -4 -43 -12 7 -33 -23 -24 -36 4 -8 3 -9
-5 -5 -6 4 -23 1 -36 -8 -18 -12 -30 -13 -50 -6 -15 6 -32 7 -38 3 -7 -3 -8
-2 -4 2 10 12 -134 64 -166 61 -15 -2 -24 0 -22 5 5 8 -54 29 -142 50 -41 10
-63 10 -107 0 -31 -7 -66 -9 -78 -5 l-23 8 25 7 c19 5 14 7 -23 8 -34 1 -46 4
-41 13 4 6 3 8 -3 5 -5 -3 -8 -19 -5 -36 4 -29 3 -30 -44 -36 -63 -9 -76 -13
-39 -14 38 -1 21 -19 -22 -23 -17 -1 -29 -6 -27 -10 3 -4 -2 -8 -10 -8 -9 0
-16 -6 -16 -14 0 -16 -109 -30 -157 -20 -22 4 -32 2 -36 -10 -4 -9 -16 -16
-27 -16 -12 0 -18 -4 -15 -10 4 -6 -5 -7 -23 -4 -20 4 -31 2 -35 -8 -3 -8 -19
-15 -36 -16 -17 0 -29 4 -26 9 4 5 1 9 -4 9 -6 0 -11 -6 -12 -12 0 -7 -4 -4
-9 7 -5 11 -9 111 -9 222 l-1 202 88 4 c48 1 112 4 142 5 30 1 122 -3 204 -8z
m-714 -277 l0 -228 -108 -24 c-59 -14 -138 -38 -177 -53 -38 -16 -77 -31 -85
-32 -8 -2 -37 -16 -64 -30 -27 -14 -55 -26 -62 -26 -8 0 -14 -4 -14 -9 0 -5
-10 -13 -22 -17 -12 -3 -31 -15 -42 -25 -11 -11 -26 -17 -32 -15 -15 6 -37
-18 -26 -29 4 -5 -1 -5 -11 -2 -11 4 -16 3 -12 -3 3 -6 0 -10 -8 -10 -7 0 -23
-13 -35 -29 -20 -27 -20 -31 -6 -45 20 -21 10 -20 -22 1 -19 12 -22 18 -12 24
10 7 10 9 0 9 -7 0 -15 -7 -19 -16 -3 -8 -12 -13 -21 -9 -12 4 -12 3 -3 -9 6
-8 22 -12 34 -9 20 4 20 3 4 -7 -9 -6 -22 -8 -27 -5 -6 3 -10 -1 -10 -9 0 -9
-4 -16 -10 -16 -5 0 -10 5 -10 10 0 6 -7 10 -15 10 -8 0 -15 -4 -15 -10 0 -5
-6 -10 -14 -10 -8 0 -18 -5 -22 -12 -4 -6 -3 -9 2 -6 5 3 14 0 21 -7 10 -10 9
-16 -4 -27 -14 -11 -16 -11 -11 3 4 11 0 15 -15 13 -12 -1 -26 -3 -30 -3 -5
-1 -5 -5 -2 -11 3 -5 3 -10 -2 -10 -4 0 -21 -12 -38 -26 -17 -15 -22 -23 -12
-20 24 8 22 3 -22 -44 -23 -25 -41 -37 -45 -31 -4 6 -2 11 5 11 7 0 9 3 5 7
-4 4 -24 -13 -46 -37 -28 -31 -38 -50 -34 -65 7 -28 -21 -54 -39 -36 -9 10 -8
11 7 5 15 -6 17 -4 11 6 -5 9 -4 11 3 6 13 -8 17 6 5 17 -8 9 -43 -22 -43 -37
0 -7 -9 -18 -20 -26 -21 -15 -29 -47 -8 -34 7 4 8 3 4 -5 -4 -6 -12 -9 -17 -5
-6 3 -17 -2 -24 -12 -17 -22 -19 -38 -5 -29 6 3 10 1 10 -5 0 -7 -6 -10 -14
-7 -19 7 -48 -36 -40 -60 5 -14 4 -15 -4 -4 -8 11 -13 7 -26 -18 -9 -17 -13
-31 -9 -31 5 0 -1 -7 -11 -15 -10 -8 -27 -27 -36 -42 -16 -27 -16 -30 2 -68
10 -22 13 -33 6 -25 -24 29 -42 17 -56 -35 -16 -59 -16 -61 -7 -102 5 -23 4
-33 -4 -33 -8 0 -10 8 -6 23 5 16 4 18 -4 7 -10 -15 -8 32 4 80 11 42 -14 -4
-37 -67 -20 -59 -17 -79 8 -47 12 15 11 11 -2 -16 -10 -19 -19 -29 -21 -22 -8
22 -25 13 -17 -10 9 -32 14 -35 24 -18 6 9 10 10 10 3 0 -6 -4 -14 -8 -17 -4
-2 -9 -19 -10 -38 -1 -18 -11 -58 -21 -88 -27 -81 -34 -113 -22 -105 6 3 9 0
7 -7 -3 -7 -7 -25 -10 -40 -4 -16 -12 -27 -19 -25 -16 3 -11 -167 6 -197 7
-12 13 -39 14 -61 1 -22 4 -51 7 -65 2 -14 5 -29 5 -34 1 -6 4 -6 10 0 6 5 12
32 14 59 2 28 4 -2 5 -66 1 -64 5 -119 10 -123 4 -4 7 -24 8 -44 0 -21 6 -68
13 -106 6 -38 10 -70 8 -72 -9 -9 -370 -35 -377 -27 -20 20 -71 312 -76 438
-3 72 -10 143 -15 159 -5 18 -5 33 0 40 6 7 6 18 1 25 -4 8 -6 21 -2 29 3 10
1 13 -6 8 -7 -4 -12 -1 -12 8 0 22 -16 20 -53 -6 -17 -12 -27 -16 -22 -8 6 10
4 12 -8 7 -9 -3 -23 0 -31 8 -13 13 -15 13 -19 -2 -8 -32 4 71 15 129 6 35 15
55 21 51 6 -3 7 -1 3 5 -9 16 4 83 15 76 5 -3 6 1 3 9 -12 32 95 335 172 490
58 116 188 314 282 432 88 110 268 294 379 387 256 216 669 425 1023 517 63
16 121 30 128 30 9 1 12 -51 12 -226z m937 -39 c-3 -3 -12 -4 -19 -1 -8 3 -5
6 6 6 11 1 17 -2 13 -5z m758 -98 c17 -6 33 -15 37 -21 5 -7 8 -7 8 0 0 6 6 3
13 -6 7 -8 50 -42 97 -74 178 -122 217 -168 168 -198 -13 -9 -30 1 -90 50 -84
69 -206 153 -223 153 -7 0 -20 10 -31 21 -10 12 -29 25 -41 30 -25 9 -30 38
-11 57 7 7 19 10 28 6 8 -4 29 -12 45 -18z m-1158 8 c-3 -3 -12 -4 -19 -1 -8
3 -5 6 6 6 11 1 17 -2 13 -5z m-880 -230 c-3 -3 -12 -4 -19 -1 -8 3 -5 6 6 6
11 1 17 -2 13 -5z m-144 -53 c-12 -10 -20 -21 -16 -24 3 -3 -4 -5 -16 -4 -11
1 -21 2 -21 3 0 4 65 44 70 43 3 0 -5 -8 -17 -18z m-128 -91 c-3 -5 -12 -10
-18 -10 -7 0 -6 4 3 10 19 12 23 12 15 0z m-38 -16 c-3 -3 -12 -4 -19 -1 -8 3
-5 6 6 6 11 1 17 -2 13 -5z m142 -48 c-2 -2 -15 -9 -29 -15 -24 -11 -24 -11
-6 3 16 13 49 24 35 12z m1211 -41 c41 -7 64 -14 50 -15 -24 -1 -23 -2 7 -13
17 -7 35 -15 39 -19 4 -5 23 -8 41 -8 20 0 32 -4 28 -10 -3 -5 3 -10 14 -10
10 0 21 -3 23 -7 5 -13 65 -43 83 -43 9 0 14 -4 11 -9 -3 -5 5 -12 18 -15 22
-5 143 -79 156 -95 3 -4 39 -32 80 -63 83 -63 186 -160 240 -227 19 -24 40
-48 45 -55 23 -25 105 -156 144 -228 36 -66 66 -134 88 -200 3 -10 9 -18 14
-18 5 0 9 -14 9 -32 0 -17 5 -46 12 -64 6 -17 8 -39 4 -49 -9 -25 -18 -12 -18
28 l0 34 -79 9 c-53 6 -80 6 -83 -1 -3 -5 -5 -2 -5 8 -1 9 -6 17 -12 17 -6 0
-9 -22 -7 -59 2 -32 6 -57 11 -54 4 2 4 -21 1 -51 -4 -31 -3 -61 3 -68 5 -7
10 -96 12 -198 2 -210 -10 -301 -59 -445 -30 -84 -97 -234 -110 -245 -4 -3
-25 -32 -47 -65 -47 -69 -150 -175 -171 -175 -8 0 -12 -6 -8 -15 4 -11 -1 -15
-19 -15 -15 0 -23 -5 -20 -12 4 -9 -8 -14 -39 -15 -28 -1 -46 3 -49 12 -6 15
-197 22 -197 7 0 -5 -18 -14 -40 -21 -23 -7 -40 -18 -40 -26 0 -11 -12 -15
-40 -15 -22 0 -40 5 -40 10 0 6 -18 10 -40 10 -22 0 -40 -4 -40 -9 0 -10 -119
-19 -366 -27 -172 -6 -503 10 -514 24 -8 13 -61 30 -112 37 -27 3 -48 10 -48
16 0 5 -11 9 -25 9 -14 0 -25 5 -25 10 0 6 -7 10 -15 10 -8 0 -15 6 -15 13 0
16 -55 47 -84 47 -12 0 -32 9 -44 20 -12 11 -28 20 -36 20 -9 0 -21 9 -28 19
-11 18 -20 19 -77 14 -47 -5 -62 -3 -57 5 5 9 -15 12 -73 12 -77 0 -81 1 -82
23 0 18 -3 16 -16 -13 -10 -22 -18 -30 -21 -21 -3 8 -16 24 -31 37 -23 20 -27
20 -39 5 -7 -9 -11 -11 -8 -5 8 16 19 90 13 84 -3 -3 -8 -18 -11 -34 -3 -16
-8 -31 -12 -35 -4 -3 -4 2 -1 12 4 10 1 17 -6 18 -9 0 -9 2 1 6 6 2 12 12 11
21 0 11 -2 12 -6 5 -8 -22 -25 -14 -18 8 5 16 4 19 -6 14 -9 -6 -11 -4 -6 8 3
9 2 17 -3 19 -15 5 -56 180 -79 335 -24 162 -8 427 36 602 16 60 18 63 24 36
5 -24 7 -18 8 26 0 30 5 59 10 65 4 5 14 30 21 56 7 26 16 45 21 42 5 -3 9 5
9 16 0 35 75 175 168 315 176 263 403 442 717 568 233 93 377 119 610 111 94
-3 204 -11 245 -19z m123 -22 c-7 -2 -19 -2 -25 0 -7 3 -2 5 12 5 14 0 19 -2
13 -5z m173 -58 c-3 -8 0 -15 6 -15 6 0 9 -2 6 -5 -3 -3 -13 -3 -22 1 -13 5
-14 9 -5 20 15 18 23 18 15 -1z m-1732 -23 c2 -4 -4 -8 -14 -8 -10 0 -16 4
-14 8 3 4 9 8 14 8 5 0 11 -4 14 -8z m-384 -242 c0 -5 -7 -10 -15 -10 -8 0
-15 5 -15 10 0 6 7 10 15 10 8 0 15 -4 15 -10z m-209 -263 c-10 -9 -11 -8 -5
6 3 10 9 15 12 12 3 -3 0 -11 -7 -18z m-114 -679 c-3 -7 -5 -2 -5 12 0 14 2
19 5 13 2 -7 2 -19 0 -25z m4607 -68 c3 -37 3 -77 0 -87 -4 -13 -3 -15 4 -4
14 20 23 -1 23 -56 0 -26 2 -129 3 -228 2 -99 1 -162 -3 -140 l-6 40 -8 -42
c-4 -23 -11 -44 -16 -48 -6 -3 -6 8 0 27 6 20 7 71 2 128 -4 52 -9 83 -11 68
-3 -28 -32 -40 -32 -14 0 27 -30 27 -40 0 -6 -14 -10 -30 -10 -35 0 -5 -18 -9
-40 -9 -31 0 -40 4 -41 18 0 12 -3 10 -10 -8 -6 -14 -10 -56 -9 -95 2 -96 -2
-112 -10 -40 l-7 60 0 -65 c-1 -36 2 -76 6 -90 4 -14 1 -47 -7 -75 -7 -27 -11
-62 -9 -77 2 -15 1 -25 -3 -23 -3 2 -12 -24 -19 -58 -7 -34 -16 -75 -21 -92
-66 -232 -88 -290 -162 -440 -86 -175 -149 -276 -250 -402 -32 -39 -58 -73
-58 -75 0 -2 27 -39 61 -83 33 -44 87 -116 120 -160 32 -44 64 -85 69 -92 6
-7 10 -102 10 -234 0 -192 -2 -220 -15 -215 -8 3 -61 40 -118 81 -130 97 -293
213 -381 273 -104 70 -128 68 -281 -29 -137 -87 -281 -162 -345 -179 -87 -23
-188 36 -191 113 -4 101 -1 105 213 257 93 67 223 181 222 196 -1 7 4 10 10 8
6 -2 51 36 99 84 63 64 86 94 81 106 -5 12 -2 15 12 9 14 -5 16 -3 11 11 -6
14 -3 17 9 12 12 -4 15 -2 10 9 -3 8 -2 14 3 12 6 -2 33 26 74 78 28 36 96
149 92 154 -2 4 1 13 7 21 8 12 9 12 4 -3 -3 -11 -2 -16 4 -12 6 3 7 17 4 30
-4 18 1 33 19 55 14 16 31 46 38 65 7 20 18 34 24 31 7 -2 10 7 7 25 -3 21 0
29 9 27 7 -2 13 4 14 12 0 24 27 80 35 75 4 -2 5 6 3 19 -3 13 0 27 6 30 8 5
8 13 0 28 -9 17 -9 20 3 16 11 -5 14 4 15 36 2 110 3 121 13 106 16 -24 13 10
-5 60 -8 23 -15 63 -15 87 0 40 -1 43 -16 29 -23 -23 -27 -20 -20 17 21 99 36
268 36 392 l0 142 78 12 c101 16 296 65 374 94 35 13 79 29 98 35 32 10 33 10
16 -3 -14 -11 -16 -15 -5 -15 8 0 25 9 39 20 21 17 22 19 5 15 -11 -3 11 10
49 30 38 19 78 35 88 35 11 0 16 4 13 10 -3 5 0 7 8 4 9 -3 16 -28 21 -74z
m-4614 4 c0 -12 -6 -36 -14 -54 -12 -29 -14 -30 -19 -11 -3 12 -1 19 3 16 12
-7 23 50 15 77 -5 18 -4 20 4 8 6 -8 11 -25 11 -36z m-613 4 c-3 -8 -6 -5 -6
6 -1 11 2 17 5 13 3 -3 4 -12 1 -19z m590 -10 c-3 -8 -6 -5 -6 6 -1 11 2 17 5
13 3 -3 4 -12 1 -19z m20 -145 c-3 -10 -5 -4 -5 12 0 17 2 24 5 18 2 -7 2 -21
0 -30z m4440 -285 c-3 -7 -5 -2 -5 12 0 14 2 19 5 13 2 -7 2 -19 0 -25z m170
-40 c-3 -7 -5 -2 -5 12 0 14 2 19 5 13 2 -7 2 -19 0 -25z m30 -170 c-2 -18 -4
-6 -4 27 0 33 2 48 4 33 2 -15 2 -42 0 -60z m-25 -65 c-9 -25 -9 -23 -9 22 0
40 2 45 10 28 6 -14 6 -31 -1 -50z m-825 -67 c-1 -19 -5 -32 -9 -28 -6 7 1 62
8 62 2 0 3 -16 1 -34z m-20 -68 c-3 -8 -6 -5 -6 6 -1 11 2 17 5 13 3 -3 4 -12
1 -19z m-38 -112 c-12 -31 -24 -55 -26 -53 -2 2 6 30 18 61 12 31 24 55 26 53
2 -2 -6 -30 -18 -61z m-3629 34 c0 -24 -26 -67 -55 -92 -34 -30 -115 -48 -223
-49 -116 -1 -125 3 -155 70 -23 53 -16 60 58 62 28 0 106 6 175 13 189 20 200
20 200 -4z m407 -82 c-3 -8 -6 -5 -6 6 -1 11 2 17 5 13 3 -3 4 -12 1 -19z
m3196 -31 c3 -8 2 -20 -3 -26 -5 -9 -7 -4 -7 13 0 29 2 32 10 13z m-82 -160
c-10 -9 -11 -8 -5 6 3 10 9 15 12 12 3 -3 0 -11 -7 -18z m-451 -561 c0 -2 -8
-10 -17 -17 -16 -13 -17 -12 -4 4 13 16 21 21 21 13z"/>
<path d="M5138 7633 c12 -2 32 -2 45 0 12 2 2 4 -23 4 -25 0 -35 -2 -22 -4z"/>
<path d="M5408 7603 c6 -2 18 -2 25 0 6 3 1 5 -13 5 -14 0 -19 -2 -12 -5z"/>
<path d="M3730 7040 c-9 -6 -10 -10 -3 -10 6 0 15 5 18 10 8 12 4 12 -15 0z"/>
<path d="M3070 6291 c0 -5 5 -13 10 -16 6 -3 10 -2 10 4 0 5 -4 13 -10 16 -5
3 -10 2 -10 -4z"/>
<path d="M2951 5998 c0 -9 -4 -25 -7 -35 -5 -17 -5 -17 6 0 6 10 9 25 7 35 -4
15 -5 15 -6 0z"/>
<path d="M2937 5903 c-10 -12 -13 -28 -10 -48 6 -27 4 -28 -10 -17 -14 12 -14
9 -4 -25 l12 -38 8 45 c5 25 14 55 20 67 13 29 5 38 -16 16z"/>
<path d="M2900 5746 c0 -20 4 -36 8 -36 12 0 14 58 2 65 -6 4 -10 -8 -10 -29z"/>
<path d="M2961 5264 c0 -11 3 -14 6 -6 3 7 2 16 -1 19 -3 4 -6 -2 -5 -13z"/>
<path d="M6061 5904 c0 -11 3 -14 6 -6 3 7 2 16 -1 19 -3 4 -6 -2 -5 -13z"/>
<path d="M4018 5637 c-31 -14 -72 -37 -90 -52 -52 -44 -106 -122 -123 -178
-21 -72 -19 -181 5 -257 11 -34 18 -66 15 -70 -3 -5 5 -34 17 -65 42 -110 153
-194 285 -215 93 -16 168 3 253 61 67 45 82 63 113 131 33 72 44 161 37 293
-5 94 -10 118 -35 168 -34 69 -117 150 -182 179 -36 16 -73 23 -143 25 -82 3
-103 1 -152 -20z"/>
<path d="M5489 5637 c-102 -43 -168 -107 -209 -202 -29 -67 -37 -182 -17 -258
8 -31 11 -54 6 -51 -13 7 -12 1 11 -67 26 -77 43 -103 98 -157 52 -51 101 -77
184 -98 150 -39 324 43 399 188 19 38 55 216 45 226 -3 3 -7 -1 -8 -9 -1 -8
-4 31 -7 86 -8 122 -36 190 -107 260 -78 76 -132 98 -244 102 -82 3 -103 0
-151 -20z"/>
<path d="M7545 5640 c-3 -6 1 -7 9 -4 18 7 21 14 7 14 -6 0 -13 -4 -16 -10z"/>
<path d="M7522 5601 c0 -16 -6 -39 -12 -51 -11 -20 -10 -21 10 -10 15 8 20 18
17 31 -3 12 3 25 16 35 19 14 19 16 3 10 -11 -4 -22 -2 -26 4 -4 6 -7 -2 -8
-19z"/>
<path d="M7470 5610 c-8 -5 -10 -10 -5 -10 6 0 17 5 25 10 8 5 11 10 5 10 -5
0 -17 -5 -25 -10z"/>
<path d="M7350 5549 c0 -5 5 -7 10 -4 6 3 10 8 10 11 0 2 -4 4 -10 4 -5 0 -10
-5 -10 -11z"/>
<path d="M7417 5539 c7 -7 15 -10 18 -7 3 3 -2 9 -12 12 -14 6 -15 5 -6 -5z"/>
<path d="M7475 5530 c-3 -5 -1 -10 4 -10 6 0 11 5 11 10 0 6 -2 10 -4 10 -3 0
-8 -4 -11 -10z"/>
<path d="M7381 5513 c-1 -6 -4 -20 -7 -30 -5 -17 -5 -17 6 0 6 10 9 23 6 30
-3 9 -5 9 -5 0z"/>
<path d="M7392 5439 c-7 -23 -10 -44 -7 -47 3 -3 5 3 6 14 0 18 1 18 9 -1 5
-14 8 -7 8 28 0 26 0 47 -1 47 -1 0 -8 -19 -15 -41z"/>
<path d="M7421 5430 c0 -8 4 -24 9 -35 5 -13 9 -14 9 -5 0 8 -4 24 -9 35 -5
13 -9 14 -9 5z"/>
<path d="M7398 5343 c5 -21 7 -23 10 -9 2 10 0 22 -6 28 -6 6 -7 0 -4 -19z"/>
<path d="M7426 5324 c-4 -20 -5 -38 -2 -41 2 -3 8 11 12 31 3 21 4 39 1 42 -2
3 -8 -11 -11 -32z"/>
<path d="M7612 5340 c0 -14 2 -19 5 -12 2 6 2 18 0 25 -3 6 -5 1 -5 -13z"/>
<path d="M6895 5296 c-11 -7 -24 -14 -30 -14 -5 -1 -11 -9 -12 -19 -2 -15 -1
-15 6 2 5 11 10 14 10 8 1 -8 9 -5 22 8 11 11 27 18 35 15 9 -3 12 -1 9 4 -8
13 -17 13 -40 -4z"/>
<path d="M7473 5283 c9 -2 23 -2 30 0 6 3 -1 5 -18 5 -16 0 -22 -2 -12 -5z"/>
<path d="M7403 5190 c0 -25 2 -35 4 -22 2 12 2 32 0 45 -2 12 -4 2 -4 -23z"/>
<path d="M6872 5100 c0 -14 2 -19 5 -12 2 6 2 18 0 25 -3 6 -5 1 -5 -13z"/>
<path d="M6861 5054 c0 -11 3 -14 6 -6 3 7 2 16 -1 19 -3 4 -6 -2 -5 -13z"/>
<path d="M6863 4995 c0 -22 2 -30 4 -17 2 12 2 30 0 40 -3 9 -5 -1 -4 -23z"/>
<path d="M6836 4934 c-4 -9 -4 -19 -1 -22 2 -3 7 3 11 12 4 9 4 19 1 22 -2 3
-7 -3 -11 -12z"/>
<path d="M6694 8106 c-43 -19 -64 -53 -64 -103 0 -64 34 -98 98 -98 42 0 56 5
81 29 83 80 -10 218 -115 172z"/>
<path d="M7357 7879 c-4 -15 -11 -20 -21 -16 -9 4 -17 1 -18 -6 0 -7 -2 -17
-2 -23 -2 -20 -28 -44 -48 -44 -10 0 -21 -7 -24 -15 -4 -8 -10 -13 -15 -10 -4
3 -5 13 -2 22 4 11 3 14 -5 9 -7 -4 -12 -13 -12 -21 0 -7 -10 -16 -22 -18 -17
-3 -14 -5 9 -6 62 -2 154 65 169 124 3 14 4 25 1 25 -2 0 -7 -10 -10 -21z"/>
<path d="M7285 7830 c3 -6 -3 -10 -14 -10 -11 0 -23 -4 -26 -10 -10 -15 41
-12 54 4 9 11 8 15 -4 20 -9 3 -13 2 -10 -4z"/>
<path d="M7087 7789 c7 -7 15 -10 18 -7 3 3 -2 9 -12 12 -14 6 -15 5 -6 -5z"/>
<path d="M7795 7576 c-79 -34 -97 -142 -34 -205 41 -41 85 -48 142 -23 76 34
100 115 54 183 -38 57 -97 73 -162 45z"/>
<path d="M2625 7558 c14 -23 15 -35 4 -87 -6 -33 -15 -59 -19 -58 -4 1 -8 -2
-8 -7 0 -5 -6 -12 -13 -17 -7 -4 -13 -24 -13 -43 0 -20 -3 -31 -6 -25 -4 6
-11 4 -20 -5 -7 -9 -16 -14 -20 -11 -5 3 -11 -4 -15 -15 -4 -13 -15 -20 -31
-20 -15 0 -23 -4 -19 -10 4 -6 11 -8 16 -5 5 4 9 1 9 -5 0 -8 -9 -10 -26 -6
-19 5 -25 3 -21 -6 2 -7 13 -13 25 -12 12 0 18 -4 15 -9 -10 -16 36 3 80 33
40 27 55 45 85 100 32 60 23 164 -19 212 l-20 23 16 -27z m-22 -213 c-3 -9 -8
-14 -10 -11 -3 3 -2 9 2 15 9 16 15 13 8 -4z"/>
<path d="M7561 7242 c-28 -22 -31 -75 -6 -102 28 -31 86 -25 106 12 9 17 8 18
-10 6 -12 -7 -21 -17 -21 -23 0 -5 -5 -3 -10 5 -5 8 -7 23 -4 32 4 14 0 16
-23 12 -28 -5 -28 -5 -6 11 15 10 20 21 16 33 -6 16 -6 16 11 0 9 -10 14 -22
11 -28 -3 -5 -2 -10 4 -10 5 0 11 6 14 13 2 7 8 8 13 3 5 -5 -1 -15 -13 -23
-13 -9 -23 -20 -23 -26 0 -6 11 0 25 13 30 28 31 44 5 70 -25 25 -61 26 -89 2z
m84 -12 c3 -6 -1 -7 -9 -4 -18 7 -21 14 -7 14 6 0 13 -4 16 -10z m-60 -18 c-3
-3 -11 0 -18 7 -9 10 -8 11 6 5 10 -3 15 -9 12 -12z"/>
<path d="M2428 7203 c7 -3 16 -2 19 1 4 3 -2 6 -13 5 -11 0 -14 -3 -6 -6z"/>
<path d="M2074 6986 c-37 -31 -38 -84 -4 -121 61 -65 172 6 140 91 -22 58 -88
72 -136 30z"/>
<path d="M7863 6920 c-73 -30 -48 -150 31 -150 81 0 112 116 39 149 -28 13
-40 13 -70 1z"/>
<path d="M1893 6602 c-52 -39 -46 -130 11 -167 51 -33 135 2 151 62 8 35 -11
88 -40 107 -32 21 -94 20 -122 -2z"/>
<path d="M1777 6102 c-37 -40 -10 -112 41 -112 52 0 82 79 44 113 -24 22 -65
21 -85 -1z"/>
<path d="M1665 5601 c-3 -5 -2 -12 3 -15 5 -3 9 1 9 9 0 17 -3 19 -12 6z"/>
<path d="M8175 5545 c-65 -64 12 -152 90 -101 20 13 25 25 25 56 0 67 -67 93
-115 45z"/>
<path d="M8271 5164 c-16 -21 -18 -30 -9 -54 5 -17 15 -33 21 -37 5 -3 7 -2 4
3 -3 6 4 10 16 11 12 0 16 -1 10 -4 -17 -6 -16 -23 1 -23 27 0 66 41 66 70 0
55 -74 79 -109 34z m51 -41 c-6 -2 -9 -10 -6 -15 4 -7 2 -8 -5 -4 -13 9 -5 26
12 25 9 0 8 -2 -1 -6z"/>
<path d="M1736 4868 c5 -7 3 -8 -5 -4 -7 5 -21 0 -32 -10 -27 -24 -25 -75 5
-103 22 -21 26 -21 59 -7 19 8 41 25 48 38 11 21 11 22 -4 9 -15 -11 -17 -11
-17 2 0 9 4 18 10 22 15 9 0 35 -31 50 -34 18 -43 19 -33 3z m8 -30 c-3 -4
-11 -5 -19 -1 -21 7 -19 12 4 10 11 0 18 -5 15 -9z m42 -38 c-1 -36 -19 -60
-34 -45 -3 3 0 5 6 5 7 0 12 10 12 22 0 20 -1 20 -12 5 -9 -11 -21 -15 -35
-11 -21 6 -21 7 -6 23 9 9 24 16 32 16 9 0 15 8 15 17 -1 9 4 14 11 12 8 -3
12 -21 11 -44z"/>
<path d="M1730 4795 c0 -8 5 -15 10 -15 6 0 10 7 10 15 0 8 -4 15 -10 15 -5 0
-10 -7 -10 -15z"/>
<path d="M8103 4859 c-12 -4 -30 -20 -39 -34 -16 -24 -16 -29 -1 -60 29 -61
109 -56 131 8 19 52 -38 106 -91 86z m71 -99 c-6 -6 -10 -3 -10 10 0 13 4 16
10 10 7 -7 7 -13 0 -20z"/>
<path d="M1771 4364 c-12 -15 -21 -37 -21 -50 0 -29 49 -77 70 -68 8 3 21 7
29 8 44 8 54 81 16 114 -34 30 -69 28 -94 -4z"/>
<path d="M8181 4364 c-27 -35 -26 -59 3 -89 29 -29 70 -22 99 17 50 67 -51
137 -102 72z"/>
<path d="M1921 4054 c-26 -32 -26 -40 -3 -48 9 -3 23 -9 31 -12 8 -4 11 -2 8
4 -10 15 20 35 42 29 13 -3 18 -1 14 9 -2 7 -10 11 -17 8 -7 -3 -18 2 -25 10
-10 12 -8 14 11 9 18 -4 20 -3 8 6 -25 18 -47 13 -69 -15z m42 -11 c9 -15 -18
-30 -38 -22 -18 7 -18 8 3 8 13 1 20 5 17 11 -3 6 -2 10 4 10 5 0 12 -3 14 -7z"/>
<path d="M8144 4040 c-33 -13 -64 -59 -64 -94 0 -42 33 -94 65 -102 80 -20
145 26 145 102 0 76 -74 123 -146 94z"/>
<path d="M7885 3788 c-62 -54 -7 -157 68 -129 62 24 76 83 30 126 -34 31 -64
32 -98 3z"/>
<path d="M2033 3755 c-32 -32 -35 -39 -30 -78 4 -30 15 -50 38 -71 28 -24 38
-28 76 -23 78 8 117 69 93 142 -14 41 -52 65 -106 65 -28 0 -44 -8 -71 -35z"/>
<path d="M2336 3314 c-62 -19 -137 -93 -154 -150 -35 -118 14 -235 121 -289
93 -46 193 -29 267 45 50 49 70 100 70 174 0 151 -158 266 -304 220z"/>
<path d="M8090 3140 c0 -9 -10 -11 -35 -7 -19 3 -62 2 -97 -3 -35 -5 -96 -10
-135 -12 -40 -2 -73 -7 -73 -13 0 -7 -3 -7 -8 0 -4 6 -15 11 -24 11 -52 4 11
-105 82 -142 101 -54 237 -9 290 96 16 33 19 65 6 78 -3 3 -6 -1 -6 -8z"/>
<path d="M2878 2695 c-31 -17 -52 -71 -42 -109 9 -37 59 -76 97 -76 19 0 45
10 62 24 26 21 30 30 30 76 0 44 -4 55 -28 76 -32 27 -78 31 -119 9z"/>
<path d="M3293 2535 c-39 -17 -53 -42 -53 -93 0 -81 86 -129 150 -85 39 27 49
45 50 86 0 49 -13 73 -50 92 -35 18 -55 18 -97 0z"/>
<path d="M6722 2464 c-45 -31 -14 -124 41 -124 36 1 68 32 69 68 2 61 -59 92
-110 56z"/>
</g>
</svg>
